<?xml version="1.0" encoding="utf-8"?>
<!-- Generator: Adobe Illustrator 27.5.0, SVG Export Plug-In . SVG Version: 6.00 Build 0)  -->
<svg version="1.1" id="Capa_1" xmlns="http://www.w3.org/2000/svg" xmlns:xlink="http://www.w3.org/1999/xlink" x="0px" y="0px"
	 viewBox="0 0 2122 2122" style="enable-background:new 0 0 2122 2122;" xml:space="preserve">
<g>
	<path style="fill:#D4D4D4;" d="M1552.524,305.017H1315.44v-16.41c0-21.752-17.635-39.386-39.386-39.386h-47.426
		c-5.148-53.779-68.135-96.278-145.129-96.278c-76.995,0-139.983,42.499-145.13,96.278h-47.425
		c-21.753,0-39.387,17.634-39.387,39.386v16.41H568.796c-36.962,0-66.929,29.963-66.929,66.928v1529.5
		c0,36.965,29.967,66.931,66.929,66.931h983.728c36.965,0,66.928-29.967,66.928-66.931v-1529.5
		C1619.452,334.98,1589.489,305.017,1552.524,305.017z M1083.499,194.518c48.941,0,88.62,25.471,88.62,56.891h-177.24
		C994.879,219.989,1034.555,194.518,1083.499,194.518z"/>
	<path style="fill:#F5A162;" d="M1552.524,305.017H1315.44v37.414h214.573v31.729h28.992v1539.297H584.194v-31.729h-28.99V342.431
		h296.353v-37.414H568.796c-36.962,0-66.929,29.963-66.929,66.928v1529.5c0,36.965,29.967,66.931,66.929,66.931h983.728
		c36.965,0,66.928-29.967,66.928-66.931v-1529.5C1619.452,334.98,1589.489,305.017,1552.524,305.017z"/>
	<path style="fill:#F2F2F2;" d="M1315.44,342.431v88.404c0,21.753-17.635,39.387-39.386,39.387h-385.11
		c-21.753,0-39.387-17.634-39.387-39.387v-88.404H555.204v1539.297h974.81V342.431H1315.44z"/>
	<path style="fill:#DCDCDC;" d="M1027.089,1602.576H916.106v-41.573h84.998c-4.151-6.847-8.285-13.765-12.415-20.788h-72.582
		v-41.573h48.891c-3.776-6.846-7.551-13.8-11.281-20.788h-37.61v-41.574h16.17c-21.079-42.346-40.991-87.005-58.837-133.626
		c-11.476-29.981-22.096-60.769-31.631-92.298c-4.167-13.781-8.105-27.665-11.807-41.574c-8.929-33.542-16.53-67.343-22.983-101.201
		c-10.645-55.852-18.14-111.737-23.198-166.299c-3.523-37.988-5.865-75.329-7.271-111.593c-2.285-58.946-2.095-115.036-0.472-166.3
		c5.241-165.561,25.424-280.958,25.424-280.958H555.204v1539.297h692.405C1247.608,1881.728,1138.547,1775.712,1027.089,1602.576z"
		/>
	<polyline style="fill:#E0E0E0;" points="873.44,789.689 674.321,789.689 674.321,623.389 873.44,623.389 873.44,789.689 	"/>
	<polyline style="fill:#E0E0E0;" points="873.44,1067.582 674.321,1067.582 674.321,901.282 873.44,901.282 873.44,1067.582 	"/>
	<rect x="916.107" y="623.391" style="fill:#E0E0E0;" width="524.056" height="41.574"/>
	<rect x="916.107" y="685.752" style="fill:#E0E0E0;" width="524.056" height="41.575"/>
	<rect x="916.107" y="748.114" style="fill:#E0E0E0;" width="524.056" height="41.574"/>
	<rect x="916.107" y="901.283" style="fill:#E0E0E0;" width="524.056" height="41.575"/>
	<rect x="916.107" y="963.644" style="fill:#E0E0E0;" width="524.056" height="41.575"/>
	<rect x="916.107" y="1026.006" style="fill:#E0E0E0;" width="524.056" height="41.575"/>
	<polyline style="fill:#E0E0E0;" points="873.44,1335.079 674.321,1335.079 674.321,1168.783 873.44,1168.783 873.44,1335.079 	"/>
	<rect x="916.107" y="1168.781" style="fill:#E0E0E0;" width="524.056" height="41.575"/>
	<rect x="916.107" y="1231.143" style="fill:#E0E0E0;" width="524.056" height="41.575"/>
	<rect x="916.107" y="1293.505" style="fill:#E0E0E0;" width="524.056" height="41.575"/>
	<polyline style="fill:#E0E0E0;" points="1440.162,1477.853 916.106,1477.853 916.106,1436.28 1440.162,1436.28 1440.162,1477.853 	
		"/>
	<polyline style="fill:#E0E0E0;" points="1440.162,1540.215 916.106,1540.215 916.106,1498.641 1440.162,1498.641 
		1440.162,1540.215 	"/>
	<polyline style="fill:#E0E0E0;" points="1440.162,1602.576 916.106,1602.576 916.106,1561.003 1440.162,1561.003 
		1440.162,1602.576 	"/>
	<polyline style="fill:#BBBABA;" points="873.44,1436.28 674.321,1436.28 674.321,1602.576 873.44,1602.576 873.44,1436.28 	"/>
	<path style="fill:#BBBABA;" d="M932.276,1436.28h-16.17v41.574h37.61C946.459,1464.255,939.307,1450.402,932.276,1436.28"/>
	<path style="fill:#BBBABA;" d="M964.997,1498.641h-48.891v41.573h72.582C980.725,1526.671,972.82,1512.82,964.997,1498.641"/>
	<path style="fill:#BBBABA;" d="M1001.103,1561.003h-84.998v41.573h110.983C1018.422,1589.114,1009.749,1575.259,1001.103,1561.003"
		/>
	<path style="fill:#C4C4C4;" d="M1297.936,448.883h-385.11c-21.753,0-39.387-17.634-39.387-39.387V267.268
		c0-5.42,1.098-10.583,3.078-15.282c-14.607,5.76-24.96,19.968-24.96,36.621v142.228c0,21.753,17.635,39.387,39.387,39.387h385.11
		c16.333,0,30.34-9.942,36.308-24.104C1307.891,447.882,1303.035,448.883,1297.936,448.883z"/>
	<circle style="fill:#AAAAA9;" cx="960.416" cy="355.208" r="34.463"/>
	<path style="fill:#AAAAA9;" d="M1247.608,355.208c0,19.034-15.43,34.463-34.463,34.463c-19.034,0-34.464-15.43-34.464-34.463
		c0-19.034,15.429-34.463,34.464-34.463C1232.179,320.745,1247.608,336.175,1247.608,355.208z"/>
	<path style="fill:#777776;" d="M969.442,378.867c-19.033,0-34.463-15.429-34.463-34.463c0-5.852,1.469-11.357,4.044-16.184
		c-7.955,6.313-13.069,16.045-13.069,26.988c0,19.033,15.43,34.463,34.463,34.463c13.182,0,24.625-7.407,30.422-18.279
		C984.957,376.06,977.533,378.867,969.442,378.867z"/>
	<path style="fill:#777776;" d="M1222.171,378.867c-19.033,0-34.463-15.429-34.463-34.463c0-5.852,1.469-11.357,4.041-16.183
		c-7.953,6.314-13.068,16.045-13.068,26.987c0,19.033,15.429,34.463,34.463,34.463c13.182,0,24.625-7.407,30.421-18.28
		C1237.687,376.06,1230.261,378.867,1222.171,378.867z"/>
	<path style="fill:#AAAAA9;" d="M1152.425,333.737h-124.723c-3.008,0-5.47-2.462-5.47-5.47c0-3.009,2.462-5.47,5.47-5.47h124.723
		c3.008,0,5.47,2.462,5.47,5.47C1157.895,331.276,1155.433,333.737,1152.425,333.737z"/>
	<path style="fill:#AAAAA9;" d="M1152.425,360.268h-124.723c-3.008,0-5.47-2.462-5.47-5.47c0-3.009,2.462-5.47,5.47-5.47h124.723
		c3.008,0,5.47,2.462,5.47,5.47C1157.895,357.807,1155.433,360.268,1152.425,360.268z"/>
	<path style="fill:#AAAAA9;" d="M1152.425,386.8h-124.723c-3.008,0-5.47-2.462-5.47-5.47l0,0c0-3.009,2.462-5.47,5.47-5.47h124.723
		c3.008,0,5.47,2.462,5.47,5.47l0,0C1157.895,384.338,1155.433,386.8,1152.425,386.8z"/>
	<path style="fill:#C4C4C4;" d="M1126.035,192.251c-31.357-9.188-81.356,0.445-103.651,18.025l0.008-0.003
		c15.904-9.74,37.391-15.755,61.107-15.755c48.941,0,88.62,25.471,88.62,56.891h20.156
		C1183.383,218.036,1157.895,201.586,1126.035,192.251z"/>
	<path style="fill:#BBBABA;" d="M776.077,623.389H674.321v166.3H776.55C774.265,730.743,774.455,674.653,776.077,623.389"/>
	<path style="fill:#BBBABA;" d="M783.82,901.282H674.321v166.3h132.698C796.374,1011.729,788.878,955.844,783.82,901.282"/>
	<path style="fill:#BBBABA;" d="M830.001,1168.783h-155.68v166.296H873.44v-32.426c-11.476-29.981-22.096-60.769-31.631-92.298
		C837.642,1196.575,833.704,1182.691,830.001,1168.783"/>
</g>
</svg>
