<?xml version="1.0" encoding="utf-8"?>
<!-- Generator: Adobe Illustrator 27.5.0, SVG Export Plug-In . SVG Version: 6.00 Build 0)  -->
<svg version="1.1" xmlns="http://www.w3.org/2000/svg" xmlns:xlink="http://www.w3.org/1999/xlink" x="0px" y="0px"
	 viewBox="0 0 500 500" style="enable-background:new 0 0 500 500;" xml:space="preserve">
<g id="BACKGROUND">
	<rect style="fill:#F3F4F6;" width="500" height="500"/>
</g>
<g id="OBJECTS">
	<g>
		<g>
			<path style="fill:#DCE6EF;" d="M459.657,351.489c-3.668-9.419-6.405-19.416-9.397-29.975
				c-2.016-7.116-5.266-15.078-12.314-17.321c-6.855-2.182-14.236,2.34-18.453,8.169c-4.217,5.828-6.341,12.895-9.948,19.12
				c-6.536,11.281-18.115,16.009-27.682,6.091c-13.668-14.167-19.82-33.478-28.487-50.758
				c-6.292-12.545-11.558-27.231-19.485-38.793c-12.089-17.631-28.665-32.664-50.709-32.664
				c-13.973,2.117-26.284,14.493-34.616,29.959c-8.332,15.466-13.193,33.859-17.335,52.209
				c-7.533,33.37-13.052,67.514-18.562,101.614c0,0,278.113-3.244,278.116-3.244c-1.105,0.013-7.925-9.101-9.231-10.365
				C470.875,375.198,464.467,363.84,459.657,351.489z"/>
			<g>
				<path style="fill:#6AA5FE;" d="M406.867,367.39c-0.545,10.811-12.309,29.712-23.12,29.167
					c-10.811-0.545-16.576-20.329-16.031-31.141c0.545-10.811,12.059-64.913,22.87-64.368
					C401.397,301.593,407.412,356.578,406.867,367.39z"/>
				
					<line style="fill:none;stroke:#1A55B5;stroke-width:0.8675;stroke-linecap:round;stroke-linejoin:round;stroke-miterlimit:10;" x1="390.066" y1="308.077" x2="384.614" y2="395.689"/>
				<path style="fill:#FFC957;" d="M382.123,365.138c-2.462,5.409-4.336,11.084-5.469,16.995c-0.575,2.998-0.937,6.246,0.42,8.98
					c1.482,2.986,4.77,4.727,8.06,5.267c8.036,1.32,16.074-3.602,20.784-10.245c4.71-6.643,6.75-14.763,8.622-22.688
					c1.474-6.24,2.923-12.572,5.701-18.388c1.191-2.493,8.165-12.116,4.866-14.612c-4.513-3.545-17.576,0.312-25.947,9.45
					C392.265,347.423,386.333,355.89,382.123,365.138z"/>
				
					<path style="fill:none;stroke:#6AA5FE;stroke-width:0.8675;stroke-linecap:round;stroke-linejoin:round;stroke-miterlimit:10;" d="
					M385.133,396.38c0,0,9.704-37.771,33.126-59.434"/>
			</g>
			<g>
				<path style="fill:#1A55B5;" d="M438.951,356.229c-0.831,1.488-2.388,2.503-3.801,3.299c-1.742,0.982-3.598,1.844-5.391,2.679
					c-2.303,1.071-4.685,2.179-6.883,3.56c-1.604,1.008-3.026,2.143-4.222,3.362c1.888-4.288,4.093-8.032,6.691-11.379
					c3.421-4.403,6.932-6.634,10.44-6.634c0.081,0,0.162,0.001,0.243,0.004c1.085,0.031,1.93,0.3,2.511,0.799
					C439.733,352.943,439.686,354.915,438.951,356.229z"/>
				<path style="fill:#1A55B5;" d="M442.87,380.652c-1.388,0.99-3.229,1.241-4.847,1.355c-1.995,0.142-4.041,0.127-6.018,0.115
					c-2.54-0.017-5.166-0.035-7.744,0.272c-1.88,0.225-3.652,0.643-5.254,1.233c3.541-3.068,7.136-5.508,10.917-7.421
					c4.976-2.516,9.104-3.03,12.275-1.529c0.073,0.035,0.146,0.07,0.218,0.108c0.967,0.492,1.616,1.097,1.928,1.796
					C444.982,378.016,444.096,379.778,442.87,380.652z"/>
				<path style="fill:#1A55B5;" d="M433.621,392.67c-1.154-0.158-2.187-0.897-3.046-1.598c-1.058-0.865-2.069-1.831-3.047-2.764
					c-1.255-1.199-2.553-2.439-3.979-3.494c-1.041-0.77-2.118-1.392-3.191-1.85c3.199,0.134,6.131,0.605,8.908,1.426
					c3.654,1.081,5.947,2.76,6.821,4.993c0.02,0.052,0.04,0.103,0.058,0.156c0.25,0.698,0.29,1.303,0.117,1.797
					C435.907,392.349,434.64,392.81,433.621,392.67z"/>
				
					<path style="fill:none;stroke:#2A294F;stroke-width:0.7798;stroke-linecap:round;stroke-linejoin:round;stroke-miterlimit:10;" d="
					M407.317,396.595c0,0,0.11-23.112,28.333-42.734"/>
				
					<path style="fill:none;stroke:#2A294F;stroke-width:0.7798;stroke-linecap:round;stroke-linejoin:round;stroke-miterlimit:10;" d="
					M407.317,396.595c0,0,8.667-18.567,32.158-18.567"/>
				
					<path style="fill:none;stroke:#2A294F;stroke-width:0.7798;stroke-linecap:round;stroke-linejoin:round;stroke-miterlimit:10;" d="
					M420.102,383.194c0,0,4.549-0.333,14.049,6.834"/>
			</g>
		</g>
		<g>
			<path style="fill:#DCE6EF;" d="M164.804,396.796c-6.524-24.659-13.085-49.33-20.754-73.212
				c-4.325-13.467-9.097-26.881-15.725-37.655c-6.629-10.773-15.411-18.722-24.227-18.666
				c-13.585,2.628-22.348,16.042-28.096,30.898c-3.769,9.741-5.596,21.543-8.262,31.838c-3.673,14.18-5.599,29.606-12.654,42.014
				c-4.939,8.686-12.531,6.469-17.648-1.334c-2.824-4.306-4.815-9.429-7.977-13.361c-3.162-3.932-8.147-6.492-12.161-4.015
				c-4.126,2.547-5.361,8.992-5.916,14.646c-0.824,8.391-1.546,16.323-2.896,23.926c-0.294,1.655-0.621,3.294-0.983,4.919H164.804z"
				/>
			<path style="fill:#FFC957;" d="M106.471,362.756c-4.076-4.701-9.235-8.758-10.862-14.691c-1.189-4.335-0.251-8.922,0.213-13.392
				c0.464-4.471,0.301-9.414-2.591-12.854c-2.383-2.835-6.147-4.067-9.768-4.845c-3.621-0.778-7.4-1.27-10.613-3.112
				c-5.217-2.991-4.178-8.08-6.979-12.544c-3.143-5.008-10.455-11.397-16.724-8.07c-6.638,3.522-5.586,14.217-1.171,18.939
				c2.929,3.132,6.679,6.137,7.11,10.404c0.649,6.423-6.711,12.207-4.687,18.338c1.495,4.529,7.203,6.085,10.022,9.932
				c2.788,3.805,2.227,9.137,0.585,13.56c-1.642,4.422-4.228,8.512-5.249,13.118c-2.09,9.425,5.305,15.937,13.73,18.038
				c7.742,1.931,24.441,1.02,24.441,1.02c5.959-2.085,12.566-7.319,15.842-13.039c2.475-4.322,2.818-9.8,0.9-14.397
				C109.684,366.791,108.172,364.718,106.471,362.756z"/>
			<path style="fill:none;stroke:#6AA5FE;stroke-linecap:round;stroke-linejoin:round;stroke-miterlimit:10;" d="M56.568,303.413
				c0,0,28.511,44.04,31.612,92.94"/>
			<g>
				<path style="fill:#6AA5FE;" d="M31.174,362.814c0.439-0.377,1.078-0.58,1.898-0.604c0.061-0.002,0.123-0.003,0.184-0.003
					c2.653,0,5.308,1.686,7.894,5.016c1.965,2.53,3.632,5.362,5.06,8.604c-0.904-0.922-1.98-1.78-3.192-2.542
					c-1.662-1.044-3.463-1.881-5.204-2.691c-1.356-0.632-2.759-1.283-4.076-2.026c-1.069-0.602-2.246-1.369-2.874-2.495
					C30.309,365.079,30.273,363.589,31.174,362.814z"/>
				<path style="fill:#6AA5FE;" d="M26.786,381.461c0.236-0.529,0.726-0.986,1.457-1.358c0.055-0.028,0.11-0.055,0.165-0.081
					c2.398-1.135,5.519-0.747,9.281,1.156c2.859,1.446,5.577,3.292,8.255,5.612c-1.211-0.446-2.551-0.762-3.973-0.932
					c-1.949-0.232-3.935-0.219-5.855-0.206c-1.495,0.01-3.042,0.021-4.551-0.086c-1.223-0.087-2.615-0.277-3.665-1.025
					C26.974,383.879,26.304,382.547,26.786,381.461z"/>
				<path style="fill:#6AA5FE;" d="M32.897,392.618c-0.131-0.374-0.101-0.831,0.088-1.359c0.014-0.04,0.029-0.079,0.044-0.118
					c0.66-1.688,2.395-2.958,5.158-3.775c2.1-0.621,4.317-0.977,6.735-1.078c-0.812,0.346-1.626,0.817-2.413,1.399
					c-1.078,0.798-2.06,1.736-3.009,2.642c-0.739,0.705-1.504,1.436-2.304,2.09c-0.649,0.53-1.43,1.088-2.303,1.208
					C34.124,393.733,33.166,393.384,32.897,392.618z"/>
				
					<path style="fill:none;stroke:#2A294F;stroke-width:0.7798;stroke-linecap:round;stroke-linejoin:round;stroke-miterlimit:10;" d="
					M54.784,396.595c0,0-0.083-17.476-21.424-32.313"/>
				
					<path style="fill:none;stroke:#2A294F;stroke-width:0.7798;stroke-linecap:round;stroke-linejoin:round;stroke-miterlimit:10;" d="
					M54.784,396.595c0,0-6.553-14.039-24.316-14.039"/>
				
					<path style="fill:none;stroke:#2A294F;stroke-width:0.7798;stroke-linecap:round;stroke-linejoin:round;stroke-miterlimit:10;" d="
					M45.117,386.462c0,0-3.44-0.251-10.623,5.168"/>
			</g>
		</g>
		<g>
			<path style="fill:#6AA5FE;" d="M283.74,396.595H95.58c-5.218,0-9.449-4.23-9.449-9.449v-255.15c0-5.219,4.231-9.449,9.449-9.449
				h188.16c5.219,0,9.449,4.23,9.449,9.449v255.15C293.189,392.365,288.958,396.595,283.74,396.595z"/>
			<path style="fill:#527EE9;" d="M86.131,189.31v197.836c0,5.219,4.231,9.449,9.449,9.449h188.16c5.219,0,9.449-4.23,9.449-9.449
				v-39.045L86.131,189.31z"/>
			<path style="fill:#F3F4F6;" d="M277.297,383.951H102.023c-2.133,0-3.862-1.729-3.862-3.862V139.054
				c0-2.133,1.729-3.862,3.862-3.862h175.274c2.133,0,3.862,1.729,3.862,3.862v241.035
				C281.158,382.222,279.429,383.951,277.297,383.951z"/>
			<g>
				<path style="fill:#1A55B5;" d="M205.356,117.372c0.013-0.259,0.039-0.513,0.039-0.775c0-8.69-7.045-15.736-15.736-15.736
					s-15.736,7.045-15.736,15.736c0,0.262,0.027,0.517,0.039,0.775H150.83v23.988h77.659v-23.988H205.356z"/>
				<polygon style="fill:#2C6BC6;" points="150.83,117.372 150.83,141.36 228.489,141.36 				"/>
				
					<ellipse transform="matrix(0.923 -0.3848 0.3848 0.923 -30.261 81.948)" style="fill:#527EE9;" cx="189.66" cy="116.597" rx="8.836" ry="8.836"/>
				<path style="fill:#6AA5FE;" d="M183.412,110.349c-3.451,3.451-3.451,9.046,0,12.496c3.451,3.451,9.046,3.451,12.496,0
					L183.412,110.349z"/>
				<rect x="150.83" y="141.36" style="fill:#CDE1F9;" width="77.659" height="1.652"/>
			</g>
		</g>
		<g>
			<g>
				<rect x="119.307" y="174.581" style="fill:none;stroke:#1A55B5;stroke-miterlimit:10;" width="29.455" height="29.455"/>
				<g>
					<g>
						<polyline style="fill:none;stroke:#F3F4F6;stroke-width:4;stroke-miterlimit:10;" points="127.926,190.815 136.934,197.887 
							155.248,180.242 						"/>
					</g>
					<g>
						<polyline style="fill:none;stroke:#FF746F;stroke-width:4;stroke-miterlimit:10;" points="125.926,188.815 134.934,195.887 
							153.248,178.242 						"/>
					</g>
				</g>
				<g>
					<path style="fill:#6AA5FE;" d="M258.878,182.942H162.9c-0.626,0-1.134-0.508-1.134-1.134l0,0c0-0.626,0.507-1.134,1.134-1.134
						h95.978c0.626,0,1.134,0.508,1.134,1.134l0,0C260.012,182.434,259.505,182.942,258.878,182.942z"/>
					<path style="fill:#6AA5FE;" d="M258.878,187.942H162.9c-0.626,0-1.134-0.508-1.134-1.134l0,0c0-0.626,0.507-1.134,1.134-1.134
						h95.978c0.626,0,1.134,0.508,1.134,1.134l0,0C260.012,187.434,259.505,187.942,258.878,187.942z"/>
					<path style="fill:#6AA5FE;" d="M258.878,192.942H162.9c-0.626,0-1.134-0.508-1.134-1.134l0,0c0-0.626,0.507-1.134,1.134-1.134
						h95.978c0.626,0,1.134,0.508,1.134,1.134l0,0C260.012,192.435,259.505,192.942,258.878,192.942z"/>
					<path style="fill:#6AA5FE;" d="M258.878,197.943H162.9c-0.626,0-1.134-0.508-1.134-1.134l0,0c0-0.626,0.507-1.134,1.134-1.134
						h95.978c0.626,0,1.134,0.508,1.134,1.134l0,0C260.012,197.435,259.505,197.943,258.878,197.943z"/>
				</g>
			</g>
			<g>
				<rect x="119.307" y="222" style="fill:none;stroke:#1A55B5;stroke-miterlimit:10;" width="29.455" height="29.455"/>
				<g>
					<g>
						<polyline style="fill:none;stroke:#F3F4F6;stroke-width:4;stroke-miterlimit:10;" points="127.926,238.234 136.934,245.305 
							155.248,227.661 						"/>
					</g>
					<g>
						<polyline style="fill:none;stroke:#FF746F;stroke-width:4;stroke-miterlimit:10;" points="125.926,236.234 134.934,243.305 
							153.248,225.661 						"/>
					</g>
				</g>
				<g>
					<path style="fill:#6AA5FE;" d="M258.878,230.36H162.9c-0.626,0-1.134-0.508-1.134-1.134l0,0c0-0.626,0.507-1.134,1.134-1.134
						h95.978c0.626,0,1.134,0.508,1.134,1.134l0,0C260.012,229.853,259.505,230.36,258.878,230.36z"/>
					<path style="fill:#6AA5FE;" d="M258.878,235.361H162.9c-0.626,0-1.134-0.508-1.134-1.134l0,0c0-0.626,0.507-1.134,1.134-1.134
						h95.978c0.626,0,1.134,0.508,1.134,1.134l0,0C260.012,234.853,259.505,235.361,258.878,235.361z"/>
					<path style="fill:#6AA5FE;" d="M258.878,240.361H162.9c-0.626,0-1.134-0.508-1.134-1.134l0,0c0-0.626,0.507-1.134,1.134-1.134
						h95.978c0.626,0,1.134,0.508,1.134,1.134l0,0C260.012,239.853,259.505,240.361,258.878,240.361z"/>
					<path style="fill:#6AA5FE;" d="M258.878,245.361H162.9c-0.626,0-1.134-0.507-1.134-1.134l0,0c0-0.626,0.507-1.134,1.134-1.134
						h95.978c0.626,0,1.134,0.507,1.134,1.134l0,0C260.012,244.854,259.505,245.361,258.878,245.361z"/>
				</g>
			</g>
			<g>
				<rect x="119.307" y="269.418" style="fill:none;stroke:#1A55B5;stroke-miterlimit:10;" width="29.455" height="29.455"/>
				<g>
					<g>
						<polyline style="fill:none;stroke:#F3F4F6;stroke-width:4;stroke-miterlimit:10;" points="127.926,285.652 136.934,292.724 
							155.248,275.079 						"/>
					</g>
					<g>
						<polyline style="fill:none;stroke:#FF746F;stroke-width:4;stroke-miterlimit:10;" points="125.926,283.652 134.934,290.724 
							153.248,273.079 						"/>
					</g>
				</g>
				<g>
					<path style="fill:#6AA5FE;" d="M258.878,277.779H162.9c-0.626,0-1.134-0.507-1.134-1.134l0,0c0-0.626,0.507-1.134,1.134-1.134
						h95.978c0.626,0,1.134,0.508,1.134,1.134l0,0C260.012,277.271,259.505,277.779,258.878,277.779z"/>
					<path style="fill:#6AA5FE;" d="M258.878,282.779H162.9c-0.626,0-1.134-0.508-1.134-1.134l0,0c0-0.626,0.507-1.134,1.134-1.134
						h95.978c0.626,0,1.134,0.508,1.134,1.134l0,0C260.012,282.271,259.505,282.779,258.878,282.779z"/>
					<path style="fill:#6AA5FE;" d="M258.878,287.779H162.9c-0.626,0-1.134-0.508-1.134-1.134l0,0c0-0.626,0.507-1.134,1.134-1.134
						h95.978c0.626,0,1.134,0.508,1.134,1.134l0,0C260.012,287.272,259.505,287.779,258.878,287.779z"/>
					<path style="fill:#6AA5FE;" d="M258.878,292.779H162.9c-0.626,0-1.134-0.507-1.134-1.134l0,0c0-0.626,0.507-1.134,1.134-1.134
						h95.978c0.626,0,1.134,0.507,1.134,1.134l0,0C260.012,292.272,259.505,292.779,258.878,292.779z"/>
				</g>
			</g>
			<g>
				<rect x="119.307" y="316.837" style="fill:none;stroke:#1A55B5;stroke-miterlimit:10;" width="29.455" height="29.455"/>
				<g>
					<g>
						<polyline style="fill:none;stroke:#F3F4F6;stroke-width:4;stroke-miterlimit:10;" points="127.926,333.07 136.934,340.142 
							155.248,322.498 						"/>
					</g>
					<g>
						<polyline style="fill:none;stroke:#FF746F;stroke-width:4;stroke-miterlimit:10;" points="125.926,331.07 134.934,338.142 
							153.248,320.498 						"/>
					</g>
				</g>
				<g>
					<path style="fill:#6AA5FE;" d="M258.878,325.197H162.9c-0.626,0-1.134-0.508-1.134-1.134l0,0c0-0.626,0.507-1.134,1.134-1.134
						h95.978c0.626,0,1.134,0.508,1.134,1.134l0,0C260.012,324.69,259.505,325.197,258.878,325.197z"/>
					<path style="fill:#6AA5FE;" d="M258.878,330.198H162.9c-0.626,0-1.134-0.508-1.134-1.134l0,0c0-0.626,0.507-1.134,1.134-1.134
						h95.978c0.626,0,1.134,0.508,1.134,1.134l0,0C260.012,329.69,259.505,330.198,258.878,330.198z"/>
					<path style="fill:#6AA5FE;" d="M258.878,335.198H162.9c-0.626,0-1.134-0.508-1.134-1.134l0,0c0-0.626,0.507-1.134,1.134-1.134
						h95.978c0.626,0,1.134,0.508,1.134,1.134l0,0C260.012,334.69,259.505,335.198,258.878,335.198z"/>
					<path style="fill:#6AA5FE;" d="M258.878,340.198H162.9c-0.626,0-1.134-0.508-1.134-1.134l0,0c0-0.626,0.507-1.134,1.134-1.134
						h95.978c0.626,0,1.134,0.508,1.134,1.134l0,0C260.012,339.69,259.505,340.198,258.878,340.198z"/>
				</g>
			</g>
		</g>
		
			<line style="fill:none;stroke:#2A294F;stroke-width:0.7798;stroke-linecap:round;stroke-linejoin:round;stroke-miterlimit:10;" x1="8.376" y1="396.592" x2="492.495" y2="396.592"/>
		<g>
			<rect x="313.466" y="387.659" style="fill:#FF746F;" width="4.562" height="5.621"/>
			<polygon style="fill:#2A294F;" points="313.5,392.007 315.888,392.743 318.104,392.007 320.094,396.568 301.649,396.568 
				308.583,394.288 			"/>
			<polygon style="fill:#FF746F;" points="361.309,393.28 365.87,393.28 364.173,387.659 359.611,387.659 			"/>
			<polygon style="fill:#2A294F;" points="365.465,392.007 363.077,392.743 360.861,392.007 358.871,396.568 377.316,396.568 
				370.382,394.288 			"/>
			<path style="fill:#FE9280;" d="M303.224,197.597c-0.618,0.473-6.233,3.788-6.233,3.788l-3.984-5.101l1.186-5.816l8.574,0.534
				c0,0,1.5,4.34,1.501,4.342C304.625,196.374,303.99,197.012,303.224,197.597z"/>
			<path style="fill:#E86767;" d="M302.768,191.002l1.293,3.805l-3.955,1.592c-0.753,0.327-1.595,0.389-2.388,0.175
				c-1.744-0.469-2.878-2.15-2.659-3.943l0.256-2.092L302.768,191.002z"/>
			<path style="fill:#FF746F;" d="M300.826,196.087l3.43,0.499l1.878-3.217c0.366-0.581,0.193-1.349-0.388-1.716l0,0
				c-0.581-0.367-1.349-0.193-1.716,0.388L300.826,196.087z"/>
			<polygon style="fill:#FFFFFF;" points="294.657,209.962 287.588,211.749 285.06,232.218 293.335,232.555 			"/>
			<g>
				<path style="fill:#FE9280;" d="M391.171,226.459l-12.357-1.556l2.828-22.465l12.357,1.556
					c6.204,0.781,10.599,6.443,9.818,12.647l0,0C403.036,222.844,397.374,227.24,391.171,226.459z"/>
				<path style="opacity:0.2;fill:#777470;" d="M391.815,221.342l-12.357-1.555l-0.644,5.117l12.357,1.556
					c6.204,0.781,11.866-3.615,12.647-9.818c0.111-0.881,0.114-1.75,0.026-2.596C402.059,218.869,397.138,222.012,391.815,221.342z"
					/>
				<polygon style="fill:#FFC957;" points="377.308,224.714 246.209,207.803 249.038,185.338 380.136,202.249 				"/>
				<polygon style="fill:#FFF4DD;" points="222.854,193.452 246.209,207.803 249.038,185.338 				"/>
				<polygon style="opacity:0.2;fill:#777470;" points="222.854,193.452 246.209,207.803 246.901,202.308 				"/>
				<polygon style="fill:#2A294F;" points="230.652,191.035 222.854,193.452 229.81,197.726 				"/>
				
					<rect x="378.679" y="202.843" transform="matrix(0.9922 0.1249 -0.1249 0.9922 29.7614 -46.3087)" style="fill:#D3EAF5;" width="10.937" height="22.643"/>
				
					<rect x="385.849" y="202.323" transform="matrix(0.9922 0.1249 -0.1249 0.9922 29.8406 -46.7444)" style="fill:#D3EAF5;" width="3.739" height="24.581"/>
				<polygon style="opacity:0.2;fill:#777470;" points="384.45,225.613 246.209,207.803 246.901,202.308 385.141,220.118 				"/>
				<polygon style="opacity:0.05;fill:#777470;" points="386.586,208.642 248.346,190.832 249.038,185.338 387.278,203.148 				"/>
				
					<rect x="384.783" y="219.324" transform="matrix(0.9922 0.1249 -0.1249 0.9922 30.8897 -46.545)" style="opacity:0.15;fill:#777470;" width="3.739" height="7.514"/>
			</g>
			<path style="fill:#E86767;" d="M342.299,280.44l1.846-4.794l6.24-0.509c1.147-0.128,2.166,0.565,2.276,1.548l0,0
				c0.109,0.983-0.732,1.884-1.879,2.012L342.299,280.44z"/>
			<path style="fill:#FF746F;" d="M339.067,275.689l3.232,4.752l6.117-1.258l-6.856-10.184l-1.319,0.876
				C338.311,271.156,337.786,273.759,339.067,275.689z"/>
			<polygon style="fill:#FFFFFF;" points="344.126,274.08 364.923,252.29 353.964,249.742 341.56,268.999 			"/>
			<path style="fill:#FFFFFF;" d="M356.891,251.352c1.108,2.379,3.935,3.409,6.314,2.301c2.379-1.108,3.41-3.935,2.301-6.314
				c-1.108-2.379-3.935-3.409-6.314-2.301C356.813,246.146,355.783,248.973,356.891,251.352z"/>
			<path style="fill:#FFFFFF;" d="M358.497,253.25l6.427-6.848l-22.435-26.596c-1.921-2.612-5.711-2.916-8.024-0.644l0,0
				c-2.313,2.272-2.087,10.31,0.491,12.278L358.497,253.25z"/>
			
				<rect x="322.375" y="207.557" transform="matrix(-0.9964 -0.0844 0.0844 -0.9964 634.6888 456.5738)" style="fill:#FF746F;" width="9.234" height="14.637"/>
			<path style="fill:#FFFFFF;" d="M288.756,229.119c-2.282,0.153-4.008,2.127-3.855,4.409c0.153,2.282,2.127,4.008,4.409,3.855
				c2.282-0.153,4.008-2.127,3.855-4.409C293.011,230.692,291.037,228.966,288.756,229.119z"/>
			<path style="fill:#FFFFFF;" d="M286.148,229.727l4.194,7.453l25.639-5.76c3.142-0.8,4.847-8.442,3.609-11.439l0,0
				c-1.238-2.997-4.843-4.202-7.634-2.553L286.148,229.727z"/>
			<path style="fill:#FFFFFF;" d="M339.139,271.944l2.791-48.813c0.655-2.606-1.102-5.202-3.764-5.563l-22.87-0.828
				c-2.662-0.361-5.047,1.673-5.109,4.359l-4.679,59.331L339.139,271.944z"/>
			<polygon style="fill:#1A55B5;" points="317.265,271.944 322.537,288.365 320.192,390.205 310.795,390.205 305.508,280.431 
				306.229,271.944 			"/>
			<polygon style="fill:#527EE9;" points="317.265,271.944 322.409,292.109 326.112,292.109 359.251,390.205 366.951,390.205 
				343.62,285.254 339.139,271.944 			"/>
			<path style="fill:#FF746F;" d="M294.115,189.609l-0.152,0.941c-0.316,1.965,1.02,3.815,2.986,4.132l1.536,0.247
				c1.965,0.316,3.815-1.021,4.132-2.986l0.151-0.941L294.115,189.609z"/>
			<polygon style="fill:#1A55B5;" points="320.978,216.944 327.679,217.193 324.952,221.263 324.952,253.676 321.023,261.95 
				317.407,251.979 322.442,220.998 			"/>
			<path style="fill:#1A55B5;" d="M339.249,196.013c-0.223-2.214-1.044-4.365-2.438-6.05c-1.289-1.558-3.038-2.722-4.958-3.348
				c-0.943-0.307-1.835-0.474-2.801-0.373c-1.197,0.125-2.422,0.259-3.562-0.25c-1.608-0.711-2.761-2.102-4.211-3.004
				c-0.334-0.206-0.704-0.377-1.093-0.507l0.002-0.005c-1.536-0.648-3.537-0.433-4.981,0.575c-0.725,0.487-1.285,1.191-1.688,1.955
				c-0.396,0.763-0.675,1.607-0.75,2.484c-0.148,1.747,0.326,3.514,1.244,4.998c0.85,1.331,2.018,2.507,3.405,3.271
				c-0.057,0.359-0.103,0.722-0.121,1.093c-0.296,6.078,4.392,11.244,10.47,11.54c4.256,0.207,8.344-2.141,10.312-5.92
				C339.092,200.529,339.473,198.239,339.249,196.013z M316.211,193.931c-0.528-0.602-1.012-1.244-1.437-1.926
				c-0.851-1.32-1.433-2.883-1.359-4.47c0.084-1.552,0.774-3.181,2.028-4.158c0.477-0.381,1.032-0.644,1.622-0.796
				c-0.29,0.134-0.573,0.295-0.837,0.519c-1.208,1.004-1.673,2.629-1.769,4.065c-0.2,3.032,0.948,5.913,3.094,7.865
				c-0.008,0.039-0.013,0.079-0.021,0.117C317.062,194.769,316.613,194.371,316.211,193.931z"/>
			<path style="fill:#FF746F;" d="M334.081,202.699c-0.193,1.144,0.578,2.228,1.722,2.421c1.144,0.193,2.228-0.577,2.422-1.722
				c0.193-1.144-0.578-2.228-1.722-2.421C335.358,200.785,334.274,201.555,334.081,202.699z"/>
			<path style="fill:#FF746F;" d="M325.115,190.982c-4.88-0.073-6.768,4.028-6.768,4.028c-0.001,0.002-0.27,1.441-0.271,1.443
				l-0.216,1.281c0,0.059-0.002,0.117,0.001,0.177l-0.025-0.041l-0.604,3.573c-0.832,4.926,2.306,9.815,7.218,10.724
				c4.979,0.921,9.73-2.415,10.57-7.39l0.739-4.378c0-0.003,0-0.006,0-0.009C335.761,200.391,337.152,191.812,325.115,190.982z"/>
			<path style="fill:#FFFFFF;" d="M326.075,202.584c-0.536-0.338-4.1-1.002-4.531-0.763c-0.463,0.257-0.653,0.867-0.53,1.382
				c0.124,0.515,0.504,0.937,0.941,1.236c0.994,0.678,2.35,0.788,3.44,0.278c0.414-0.194,0.805-0.49,0.984-0.91
				C326.559,203.386,326.461,202.829,326.075,202.584z"/>
			<path style="fill:#1A55B5;" d="M327.067,191.2c1.21,0.186,2.423,0.517,3.561,0.964c0.853,0.336,1.675,0.756,2.369,1.362
				c2.258,1.973,0.247,6.206-0.531,8.413c-0.19,0.539-0.412,1.181-0.073,1.642c0.367,0.499,1.181,0.408,1.656,0.012
				c0.475-0.397,0.723-0.993,1.042-1.524c0.319-0.531,0.794-1.05,1.412-1.091c0,0-0.36-10.01-0.36-10.019
				c-0.003-0.073-6.292-0.211-6.774-0.227C328.394,190.698,327.067,191.2,327.067,191.2z"/>
		</g>
	</g>
</g>
</svg>
